<svg xmlns="http://www.w3.org/2000/svg" width="512" height="768" viewBox="0 0 512 768">
<defs>
  <pattern id="paper" width="24" height="24" patternUnits="userSpaceOnUse">
    <path d="M0 4H24 M0 17H24" stroke="#eadfca" stroke-opacity=".055" stroke-width="3"/>
    <path d="M6 0L0 6 M24 8L8 24" stroke="#f2186e" stroke-opacity=".045" stroke-width="3"/>
  </pattern>
</defs>
<rect width="512" height="768" fill="#09070b"/>
<path d="M18 17 L494 28 L486 746 L27 752 Z" fill="#181019" stroke="#c2b397" stroke-width="15"/>
<path d="M39 42 L470 49 L462 723 L51 729 Z" fill="url(#paper)" stroke="#f2186e" stroke-width="7"/>
<g fill="none" stroke-linecap="round">
  <circle cx="256" cy="364" r="152" stroke="#e6d9bd" stroke-width="8" opacity=".78"/>
  <circle cx="256" cy="364" r="112" stroke="#29ebe8" stroke-width="7" opacity=".75"/>
  <circle cx="256" cy="364" r="52" stroke="#bfff2b" stroke-width="8" opacity=".78"/>
  <path d="M256 211V517 M103 364H409 M148 255L364 473 M364 255L148 473" stroke="#e6d9bd" stroke-width="6" opacity=".55"/>
</g>
<g fill="#09070b" stroke="#f2186e" stroke-width="8">
  <path d="M256 145 L287 212 L359 219 L304 267 L321 338 L256 301 L191 338 L208 267 L153 219 L225 212 Z"/>
</g>
<g stroke="#e6d9bd" stroke-width="5" opacity=".5">
  <path d="M71 129L161 191"/><path d="M432 117L357 190"/>
  <path d="M84 615L173 555"/><path d="M424 624L345 558"/>
</g>
<path d="M92 666 C167 627 342 632 420 671" fill="none" stroke="#29ebe8" stroke-width="8" stroke-dasharray="18 13"/>
<path d="M91 98 C176 70 345 73 425 102" fill="none" stroke="#f2186e" stroke-width="7" opacity=".7"/>
<g fill="#f2186e">
  <circle cx="71" cy="77" r="12"/><circle cx="441" cy="83" r="12"/><circle cx="76" cy="688" r="12"/><circle cx="435" cy="689" r="12"/>
</g>
<path d="M52 52 L96 63 M451 55 L412 67 M58 713 L103 700 M455 710 L410 698" stroke="#bfff2b" stroke-width="7" opacity=".65"/>
</svg>